<svg viewBox="0 0 126 125" xmlns="http://www.w3.org/2000/svg">
    <path d="M54.875 85.25V77.875C54.875 73.7917 55.4167 70.4583 56.5 67.875C57.5833 65.2917 58.9583 63.0833 60.625 61.25C62.2917 59.4167 64 57.7083 65.75 56.125C68.25 54.0417 70.4167 51.875 72.25 49.625C74.0833 47.375 75 44.4167 75 40.75C75 38.4167 74.4167 36.375 73.25 34.625C72.0833 32.875 70.625 31.5417 68.875 30.625C67.125 29.625 65.2917 29.125 63.375 29.125C60.7083 29.125 58.4167 29.7083 56.5 30.875C54.5833 31.9583 53 33.4583 51.75 35.375C50.5 37.2083 49.4583 39.2083 48.625 41.375L37 36.125C37.5833 34.375 38.5417 32.375 39.875 30.125C41.2083 27.875 42.9583 25.6667 45.125 23.5C47.375 21.3333 50.125 19.5417 53.375 18.125C56.625 16.7083 60.4167 16 64.75 16C69.5 16 73.75 16.875 77.5 18.625C81.25 20.375 84.25 23 86.5 26.5C88.75 29.9167 89.875 34.25 89.875 39.5C89.875 43.75 89.25 47.25 88 50C86.8333 52.75 85.3333 55.125 83.5 57.125C81.75 59.125 79.875 61.0417 77.875 62.875C76.2917 64.375 74.7917 65.9167 73.375 67.5C71.9583 69 70.8333 70.8333 70 73C69.25 75.0833 68.875 77.7917 68.875 81.125V85.25H54.875ZM61.875 109.375C59.375 109.375 57.3333 108.708 55.75 107.375C54.1667 105.958 53.375 104.125 53.375 101.875C53.375 99.7083 54.1667 97.875 55.75 96.375C57.4167 94.875 59.4583 94.125 61.875 94.125C64.375 94.125 66.4167 94.875 68 96.375C69.5833 97.875 70.375 99.7083 70.375 101.875C70.375 104.125 69.5833 105.958 68 107.375C66.5 108.708 64.4583 109.375 61.875 109.375Z"
    />
</svg>
