<svg viewBox="0 0 36 36" xmlns="http://www.w3.org/2000/svg">
    <path fill-rule="evenodd" clip-rule="evenodd"
          d="M16.5 6C10.701 6 6 10.701 6 16.5C6 22.299 10.701 27 16.5 27C22.299 27 27 22.299 27 16.5C27 10.701 22.299 6 16.5 6ZM3 16.5C3 9.04416 9.04416 3 16.5 3C23.9558 3 30 9.04416 30 16.5C30 23.9558 23.9558 30 16.5 30C9.04416 30 3 23.9558 3 16.5Z"
    />
    <path fill-rule="evenodd" clip-rule="evenodd"
          d="M23.9143 23.9143C24.5001 23.3286 25.4498 23.3286 26.0356 23.9143L32.5606 30.4393C33.1464 31.0251 33.1464 31.9749 32.5606 32.5607C31.9749 33.1464 31.0251 33.1464 30.4393 32.5607L23.9143 26.0357C23.3285 25.4499 23.3285 24.5001 23.9143 23.9143Z"
    />
</svg>
